<svg width="28" height="28" viewBox="0 0 28 28" fill="none" xmlns="http://www.w3.org/2000/svg">
<path d="M25.605 10.7088C25.5317 10.4929 25.3967 10.3031 25.2168 10.1629C25.0368 10.0228 24.8197 9.93838 24.5924 9.92018L17.9412 9.39168L15.063 3.02052C14.9714 2.81531 14.8223 2.64103 14.6337 2.51868C14.4452 2.39634 14.2253 2.33118 14.0006 2.33105C13.7758 2.33093 13.5559 2.39585 13.3672 2.51799C13.1785 2.64012 13.0292 2.81425 12.9374 3.01935L10.0592 9.39168L3.40803 9.92018C3.18456 9.93789 2.97092 10.0196 2.79267 10.1555C2.61443 10.2915 2.47912 10.4759 2.40294 10.6867C2.32675 10.8975 2.31292 11.1259 2.3631 11.3443C2.41327 11.5628 2.52533 11.7622 2.68586 11.9187L7.60103 16.7102L5.86269 24.2375C5.80991 24.4654 5.82683 24.7038 5.91125 24.9219C5.99567 25.14 6.1437 25.3278 6.33613 25.4607C6.52856 25.5936 6.7565 25.6657 6.99038 25.6674C7.22425 25.6692 7.45326 25.6007 7.64769 25.4707L14.0002 21.2357L20.3527 25.4707C20.5514 25.6026 20.7858 25.6706 21.0243 25.6653C21.2627 25.6601 21.4939 25.582 21.6867 25.4414C21.8794 25.3009 22.0245 25.1047 22.1024 24.8793C22.1803 24.6538 22.1874 24.4099 22.1225 24.1803L19.9887 16.7137L25.2807 11.9514C25.6272 11.6387 25.7544 11.151 25.605 10.7088Z" fill="#F59E0B"/>
</svg>
